<?xml version="1.0" standalone="no"?>
<!DOCTYPE svg PUBLIC "-//W3C//DTD SVG 20010904//EN"
 "http://www.w3.org/TR/2001/REC-SVG-20010904/DTD/svg10.dtd">
<svg version="1.0" xmlns="http://www.w3.org/2000/svg"
 width="700.000000pt" height="700.000000pt" viewBox="0 0 700.000000 700.000000"
 preserveAspectRatio="xMidYMid meet">
<metadata>
Created by potrace 1.14, written by Peter Selinger 2001-2017
</metadata>
<g transform="translate(0.000000,700.000000) scale(0.100000,-0.100000)"
fill="#000000" stroke="none">
<path d="M618 6474 c-2 -1 -21 -4 -43 -7 -290 -40 -495 -230 -555 -514 -18
-84 -18 -175 -18 -1933 0 -1736 1 -1850 17 -1930 62 -290 259 -470 568 -517
21 -3 472 -6 1003 -7 l965 -1 1 -261 c1 -260 1 -262 -20 -262 -86 0 -178 -60
-220 -144 -66 -133 -18 -279 117 -351 l42 -22 1008 -2 c986 -2 1010 -2 1062
18 165 62 219 261 110 405 -34 44 -90 77 -155 90 l-55 11 0 259 0 259 965 1
c531 0 983 4 1005 8 22 4 51 9 65 11 146 26 316 135 397 255 34 51 79 144 87
181 36 156 35 109 35 2004 0 1786 0 1843 -19 1928 -37 170 -128 314 -249 396
-84 57 -160 88 -286 117 -26 6 -5821 14 -5827 8z m5732 -569 c19 -12 48 -40
65 -64 l30 -43 0 -1412 c0 -1539 3 -1452 -56 -1477 -42 -17 -5736 -17 -5778 1
-60 25 -57 -58 -56 1472 0 1350 1 1404 19 1441 22 45 67 82 116 94 20 6 1196
9 2830 9 l2795 -1 35 -20z"/>
<path d="M3610 5570 c-15 -15 -16 -66 -16 -458 1 -343 4 -444 14 -454 19 -19
2465 -19 2484 0 19 19 21 884 2 910 -12 16 -85 17 -1240 17 -1112 1 -1230 -1
-1244 -15z"/>
</g>
</svg>
